<svg xmlns="http://www.w3.org/2000/svg" version="1.1" xmlns:xlink="http://www.w3.org/1999/xlink" xmlns:svgjs="http://svgjs.dev/svgjs" width="1000" height="623" viewBox="0 0 1000 623"><g transform="matrix(1,0,0,1,-0.6060606060606233,0.2522267206477409)"><svg viewBox="0 0 396 247" data-background-color="#ffffff" preserveAspectRatio="xMidYMid meet" height="623" width="1000" xmlns="http://www.w3.org/2000/svg" xmlns:xlink="http://www.w3.org/1999/xlink"><g id="tight-bounds" transform="matrix(1,0,0,1,0.2400000000000091,-0.09999999999999432)"><svg viewBox="0 0 395.52 247.2" height="247.2" width="395.52"><g><svg></svg></g><g><svg viewBox="0 0 395.52 247.2" height="247.2" width="395.52"><g transform="matrix(1,0,0,1,136.54457577464788,47.215199999999996)"><svg viewBox="0 0 122.43084845070423 152.7696" height="152.7696" width="122.43084845070423"><g><svg viewBox="0 0 122.43084845070423 152.7696" height="152.7696" width="122.43084845070423"><g><svg viewBox="0 0 122.43084845070423 152.7696" height="152.7696" width="122.43084845070423"><g><svg viewBox="0 0 122.43084845070423 152.7696" height="152.7696" width="122.43084845070423"><g id="textblocktransform"><svg viewBox="0 0 122.43084845070423 152.7696" height="152.7696" width="122.43084845070423" id="textblock"><g><svg viewBox="0 0 122.43084845070423 152.7696" height="152.7696" width="122.43084845070423"><g transform="matrix(1,0,0,1,0,0)"><svg width="122.43084845070423" viewBox="4.25 -35.5 28.450000762939453 35.5" height="152.7696" data-palette-color="#ee3e38"><path d="M8.75 0L4.25 0 4.25-35.45 8.75-35.45 8.75-15.85 27.05-35.5 31.9-35.5 17.65-19.85 32.7 0 27.65 0 14.8-17.15 8.75-10.85 8.75 0Z" opacity="1" transform="matrix(1,0,0,1,0,0)" fill="#ee3e38" class="wordmark-text-0" data-fill-palette-color="primary" id="text-0"></path></svg></g></svg></g></svg></g></svg></g></svg></g></svg></g></svg></g><g><path d="M0 123.6c0-68.262 55.338-123.6 123.6-123.6 30.402 0 58.24 10.976 79.768 29.183l-11.147 0c-19.26-14.022-42.974-22.294-68.621-22.295-64.458 0-116.712 52.254-116.712 116.712 0 64.458 52.254 116.712 116.712 116.712 25.647 0 49.361-8.272 68.621-22.295l11.147 0c-21.528 18.206-49.366 29.183-79.768 29.183-68.262 0-123.6-55.338-123.6-123.6z" fill="#ee3e38" stroke="transparent" data-fill-palette-color="tertiary"></path></g></svg></g><defs></defs></svg><rect width="395.52" height="247.2" fill="none" stroke="none" visibility="hidden"></rect></g></svg></g></svg>